<svg width="38" height="37" viewBox="0 0 38 37" fill="none" xmlns="http://www.w3.org/2000/svg">
<g clip-path="url(#clip0_163_6142)">
<g clip-path="url(#clip1_163_6142)">
<path d="M7.01397 27.4233V27.127C7.01397 24.6376 7.01397 23.393 7.49842 22.4422C7.92456 21.6059 8.60452 20.9259 9.44086 20.4998C10.3916 20.0153 11.6363 20.0153 14.1256 20.0153H23.6078C26.0971 20.0153 27.3418 20.0153 28.2926 20.4998C29.1289 20.9259 29.8089 21.6059 30.235 22.4422C30.7195 23.393 30.7195 24.6376 30.7195 27.127V27.4233M7.01397 27.4233C5.37745 27.4233 4.05078 28.75 4.05078 30.3865C4.05078 32.0229 5.37745 33.3496 7.01397 33.3496C8.65049 33.3496 9.97716 32.0229 9.97716 30.3865C9.97716 28.75 8.65049 27.4233 7.01397 27.4233ZM30.7195 27.4233C29.083 27.4233 27.7563 28.75 27.7563 30.3865C27.7563 32.0229 29.083 33.3496 30.7195 33.3496C32.3559 33.3496 33.6827 32.0229 33.6827 30.3865C33.6827 28.75 32.3559 27.4233 30.7195 27.4233ZM18.8667 27.4233C17.2302 27.4233 15.9035 28.75 15.9035 30.3865C15.9035 32.0229 17.2302 33.3496 18.8667 33.3496C20.5032 33.3496 21.8299 32.0229 21.8299 30.3865C21.8299 28.75 20.5032 27.4233 18.8667 27.4233ZM18.8667 27.4233V12.6073M9.97716 12.6073H27.7563C29.1369 12.6073 29.8273 12.6073 30.3719 12.3818C31.0978 12.081 31.6748 11.5042 31.9755 10.7781C32.2011 10.2336 32.2011 9.54323 32.2011 8.16255C32.2011 6.78188 32.2011 6.09155 31.9755 5.54699C31.6748 4.82093 31.0978 4.24408 30.3719 3.94333C29.8273 3.71777 29.1369 3.71777 27.7563 3.71777H9.97716C8.59648 3.71777 7.90615 3.71777 7.3616 3.94333C6.63554 4.24408 6.05868 4.82093 5.75793 5.54699C5.53237 6.09155 5.53238 6.78188 5.53238 8.16255C5.53238 9.54323 5.53237 10.2336 5.75793 10.7781C6.05868 11.5042 6.63554 12.081 7.3616 12.3818C7.90615 12.6073 8.59648 12.6073 9.97716 12.6073Z" stroke="#FF7542" style="stroke:#FF7542;stroke:color(display-p3 1.0000 0.4597 0.2600);stroke-opacity:1;" stroke-width="2.84922" stroke-linecap="round" stroke-linejoin="round"/>
</g>
</g>
<defs>
<clipPath id="clip0_163_6142">
<rect width="36.47" height="36.47" fill="white" style="fill:white;fill-opacity:1;" transform="translate(0.630859 0.298828)"/>
</clipPath>
<clipPath id="clip1_163_6142">
<rect width="36.47" height="36.47" fill="white" style="fill:white;fill-opacity:1;" transform="translate(0.630859 0.298828)"/>
</clipPath>
</defs>
</svg>
