<svg width="38" height="37" viewBox="0 0 38 37" fill="none" xmlns="http://www.w3.org/2000/svg">
<g clip-path="url(#clip0_163_6129)">
<g clip-path="url(#clip1_163_6129)">
<path d="M4.30918 19.5578C4.10223 19.23 3.99876 19.0662 3.94083 18.8134C3.89733 18.6237 3.89733 18.3243 3.94083 18.1345C3.99876 17.8817 4.10223 17.718 4.30918 17.3903C6.01932 14.6824 11.1097 7.83691 18.8672 7.83691C26.6247 7.83691 31.7151 14.6824 33.4252 17.3903C33.6322 17.718 33.7356 17.8817 33.7935 18.1345C33.8371 18.3243 33.8371 18.6237 33.7935 18.8134C33.7356 19.0662 33.6322 19.23 33.4252 19.5578C31.7151 22.2656 26.6247 29.1111 18.8672 29.1111C11.1097 29.1111 6.01932 22.2656 4.30918 19.5578Z" stroke="#FF7542" style="stroke:#FF7542;stroke:color(display-p3 1.0000 0.4597 0.2600);stroke-opacity:1;" stroke-width="2.84922" stroke-linecap="round" stroke-linejoin="round"/>
<path d="M18.8673 23.0325C21.3851 23.0325 23.4261 20.9915 23.4261 18.4738C23.4261 15.956 21.3851 13.915 18.8673 13.915C16.3497 13.915 14.3086 15.956 14.3086 18.4738C14.3086 20.9915 16.3497 23.0325 18.8673 23.0325Z" stroke="#FF7542" style="stroke:#FF7542;stroke:color(display-p3 1.0000 0.4597 0.2600);stroke-opacity:1;" stroke-width="2.84922" stroke-linecap="round" stroke-linejoin="round"/>
</g>
</g>
<defs>
<clipPath id="clip0_163_6129">
<rect width="36.47" height="36.47" fill="white" style="fill:white;fill-opacity:1;" transform="translate(0.630859 0.239258)"/>
</clipPath>
<clipPath id="clip1_163_6129">
<rect width="36.47" height="36.47" fill="white" style="fill:white;fill-opacity:1;" transform="translate(0.630859 0.239258)"/>
</clipPath>
</defs>
</svg>
