<svg width="38" height="37" viewBox="0 0 38 37" fill="none" xmlns="http://www.w3.org/2000/svg">
<g clip-path="url(#clip0_163_6165)">
<g clip-path="url(#clip1_163_6165)">
<path d="M5.18945 13.9154H32.542M14.307 13.9154V32.1504M12.4835 4.79785H25.248C27.8011 4.79785 29.0776 4.79785 30.0529 5.29472C30.9106 5.73179 31.608 6.42919 32.045 7.28697C32.542 8.26215 32.542 9.53871 32.542 12.0919V24.8564C32.542 27.4095 32.542 28.686 32.045 29.6613C31.608 30.519 30.9106 31.2164 30.0529 31.6534C29.0776 32.1504 27.8011 32.1504 25.248 32.1504H12.4835C9.93031 32.1504 8.65375 32.1504 7.67858 31.6534C6.82079 31.2164 6.12339 30.519 5.68632 29.6613C5.18945 28.686 5.18945 27.4095 5.18945 24.8564V12.0919C5.18945 9.53871 5.18945 8.26215 5.68632 7.28697C6.12339 6.42919 6.82079 5.73179 7.67858 5.29472C8.65375 4.79785 9.93031 4.79785 12.4835 4.79785Z" stroke="#FF7542" style="stroke:#FF7542;stroke:color(display-p3 1.0000 0.4597 0.2600);stroke-opacity:1;" stroke-width="2.84922" stroke-linecap="round" stroke-linejoin="round"/>
</g>
</g>
<defs>
<clipPath id="clip0_163_6165">
<rect width="36.47" height="36.47" fill="white" style="fill:white;fill-opacity:1;" transform="translate(0.630859 0.239258)"/>
</clipPath>
<clipPath id="clip1_163_6165">
<rect width="36.47" height="36.47" fill="white" style="fill:white;fill-opacity:1;" transform="translate(0.630859 0.239258)"/>
</clipPath>
</defs>
</svg>
