<svg width="1379" height="749" viewBox="0 0 1379 749" fill="none" xmlns="http://www.w3.org/2000/svg">
<path d="M1377 2C1350.85 2.75617 1330.47 24.5601 1311.47 39.3829C1275.36 67.5509 1253.32 107.883 1241.94 150.01C1231.31 189.335 1215.39 228.972 1198.95 266.506C1174.89 321.475 1137.42 369.04 1110.87 422.557C1089.7 465.236 1064.28 506.247 1028.43 540.14C976.101 589.596 929.795 647.463 863.534 681.847C804.835 712.307 734.298 740.194 666.697 744.441C605.102 748.311 542.375 745.311 480.665 745.311C413.644 745.311 346.622 745.311 279.601 745.311C254.893 745.311 215.266 751.688 192.222 739.66C157.363 721.465 127.05 682.11 107.662 651.202C64.6978 582.708 52.5385 501.334 35.7863 424.948C22.4588 364.179 6.20141 303.481 3.37165 241.294C2.32858 218.372 -3.2334 198.138 19.1092 184.133C32.4695 175.758 49.5549 174.826 65.1473 174.352C103.148 173.2 140.672 170.545 178.599 168.05C205.972 166.248 254.146 157.709 281.48 169.788C296.526 176.438 351.385 206.64 358.053 181.959" stroke="#FF0000" style="stroke:#FF0000;stroke:color(display-p3 1.0000 0.0000 0.0000);stroke-opacity:1;" stroke-width="3" stroke-linecap="round"/>
</svg>
