<svg width="20" height="21" viewBox="0 0 20 21" fill="none" xmlns="http://www.w3.org/2000/svg">
<path d="M4.75 1.5V3.75M15.25 1.5V3.75M1 17.25V6C1 4.75736 2.00736 3.75 3.25 3.75H16.75C17.9926 3.75 19 4.75736 19 6V17.25M1 17.25C1 18.4926 2.00736 19.5 3.25 19.5H16.75C17.9926 19.5 19 18.4926 19 17.25M1 17.25V9.75C1 8.50736 2.00736 7.5 3.25 7.5H16.75C17.9926 7.5 19 8.50736 19 9.75V17.25M10 11.25H10.0075V11.2575H10V11.25ZM10 13.5H10.0075V13.5075H10V13.5ZM10 15.75H10.0075V15.7575H10V15.75ZM7.75 13.5H7.7575V13.5075H7.75V13.5ZM7.75 15.75H7.7575V15.7575H7.75V15.75ZM5.5 13.5H5.5075V13.5075H5.5V13.5ZM5.5 15.75H5.5075V15.7575H5.5V15.75ZM12.25 11.25H12.2575V11.2575H12.25V11.25ZM12.25 13.5H12.2575V13.5075H12.25V13.5ZM12.25 15.75H12.2575V15.7575H12.25V15.75ZM14.5 11.25H14.5075V11.2575H14.5V11.25ZM14.5 13.5H14.5075V13.5075H14.5V13.5Z" stroke="#FF7542" style="stroke:#FF7542;stroke:color(display-p3 1.0000 0.4597 0.2600);stroke-opacity:1;" stroke-width="1.5" stroke-linecap="round" stroke-linejoin="round"/>
</svg>
