<svg width="25" height="24" viewBox="0 0 25 24" fill="none" xmlns="http://www.w3.org/2000/svg">
<rect x="1.75" y="1.5" width="21" height="21" rx="6" fill="#DE5D34" style="fill:#DE5D34;fill:color(display-p3 0.8716 0.3638 0.2034);fill-opacity:1;"/>
<rect x="1.75" y="1.5" width="21" height="21" rx="6" fill="#FF7542" style="fill:#FF7542;fill:color(display-p3 1.0000 0.4597 0.2600);fill-opacity:1;"/>
<rect x="1.75" y="1.5" width="21" height="21" rx="6" fill="#2F2F2F" style="fill:#2F2F2F;fill:color(display-p3 0.1849 0.1849 0.1849);fill-opacity:1;"/>
<path d="M17.5 7.875C17.5 8.49632 16.9963 9 16.375 9C15.7537 9 15.25 8.49632 15.25 7.875C15.25 7.25368 15.7537 6.75 16.375 6.75C16.9963 6.75 17.5 7.25368 17.5 7.875Z" fill="white" style="fill:white;fill-opacity:1;"/>
<path fill-rule="evenodd" clip-rule="evenodd" d="M12.25 15.75C14.3211 15.75 16 14.0711 16 12C16 9.92893 14.3211 8.25 12.25 8.25C10.1789 8.25 8.5 9.92893 8.5 12C8.5 14.0711 10.1789 15.75 12.25 15.75ZM12.25 14.25C13.4926 14.25 14.5 13.2426 14.5 12C14.5 10.7574 13.4926 9.75 12.25 9.75C11.0074 9.75 10 10.7574 10 12C10 13.2426 11.0074 14.25 12.25 14.25Z" fill="white" style="fill:white;fill-opacity:1;"/>
<path fill-rule="evenodd" clip-rule="evenodd" d="M4.75 11.7C4.75 9.17976 4.75 7.91965 5.24047 6.95704C5.6719 6.11031 6.36031 5.4219 7.20704 4.99047C8.16965 4.5 9.42976 4.5 11.95 4.5H12.55C15.0702 4.5 16.3304 4.5 17.293 4.99047C18.1397 5.4219 18.8281 6.11031 19.2595 6.95704C19.75 7.91965 19.75 9.17976 19.75 11.7V12.3C19.75 14.8202 19.75 16.0804 19.2595 17.043C18.8281 17.8897 18.1397 18.5781 17.293 19.0095C16.3304 19.5 15.0702 19.5 12.55 19.5H11.95C9.42976 19.5 8.16965 19.5 7.20704 19.0095C6.36031 18.5781 5.6719 17.8897 5.24047 17.043C4.75 16.0804 4.75 14.8202 4.75 12.3V11.7ZM11.95 6H12.55C13.8349 6 14.7083 6.00117 15.3834 6.05633C16.0411 6.11006 16.3774 6.20745 16.612 6.32698C17.1765 6.6146 17.6354 7.07354 17.923 7.63803C18.0426 7.87263 18.1399 8.20893 18.1937 8.86656C18.2488 9.54169 18.25 10.4151 18.25 11.7V12.3C18.25 13.5849 18.2488 14.4583 18.1937 15.1334C18.1399 15.7911 18.0426 16.1274 17.923 16.362C17.6354 16.9265 17.1765 17.3854 16.612 17.673C16.3774 17.7926 16.0411 17.8899 15.3834 17.9437C14.7083 17.9988 13.8349 18 12.55 18H11.95C10.6651 18 9.79169 17.9988 9.11656 17.9437C8.45893 17.8899 8.12263 17.7926 7.88803 17.673C7.32354 17.3854 6.8646 16.9265 6.57698 16.362C6.45745 16.1274 6.36006 15.7911 6.30633 15.1334C6.25117 14.4583 6.25 13.5849 6.25 12.3V11.7C6.25 10.4151 6.25117 9.54169 6.30633 8.86656C6.36006 8.20893 6.45745 7.87263 6.57698 7.63803C6.8646 7.07354 7.32354 6.6146 7.88803 6.32698C8.12263 6.20745 8.45893 6.11006 9.11656 6.05633C9.79169 6.00117 10.6651 6 11.95 6Z" fill="white" style="fill:white;fill-opacity:1;"/>
</svg>
