<svg width="25" height="24" viewBox="0 0 25 24" fill="none" xmlns="http://www.w3.org/2000/svg">
<path d="M5.77947 7.81176C7.02816 7.81176 7.80557 6.98957 7.80557 5.96216C7.78238 4.91157 7.02843 4.1123 5.80318 4.1123C4.57819 4.1123 3.77734 4.91157 3.77734 5.96216C3.77734 6.98957 4.55448 7.81176 5.75629 7.81176H5.77947Z" fill="#2F2F2F" style="fill:#2F2F2F;fill:color(display-p3 0.1849 0.1849 0.1849);fill-opacity:1;"/>
<path d="M7.56945 19.9786V9.27246H3.98828V19.9786H7.56945Z" fill="#2F2F2F" style="fill:#2F2F2F;fill:color(display-p3 0.1849 0.1849 0.1849);fill-opacity:1;"/>
<path d="M9.55078 19.9786H13.132V13.9999C13.132 13.6799 13.1551 13.3603 13.2497 13.1316C13.5087 12.4923 14.0977 11.8303 15.0872 11.8303C16.383 11.8303 16.9015 12.8121 16.9015 14.2512V19.9786H20.4821V13.84C20.4821 10.5515 18.7155 9.02148 16.3593 9.02148C14.4275 9.02148 13.5793 10.0945 13.108 10.8252H13.132V9.27254H9.55078C9.59767 10.2773 9.55078 19.9786 9.55078 19.9786Z" fill="#2F2F2F" style="fill:#2F2F2F;fill:color(display-p3 0.1849 0.1849 0.1849);fill-opacity:1;"/>
</svg>
