<svg width="25" height="24" viewBox="0 0 25 24" fill="none" xmlns="http://www.w3.org/2000/svg">
<g clip-path="url(#clip0_212_3799)">
<path d="M7.83888 21.6196C16.7857 21.6196 21.6794 14.207 21.6794 7.7791C21.6794 7.56861 21.6794 7.35892 21.6651 7.15027C22.6172 6.46165 23.4389 5.60917 24.0919 4.63234C23.2041 5.02565 22.2623 5.28382 21.2979 5.39762C22.3135 4.78961 23.0735 3.8336 23.4365 2.70714C22.4815 3.27379 21.437 3.67316 20.3477 3.88786C18.5055 1.92894 15.424 1.83437 13.4651 3.67659C12.2017 4.86469 11.6658 6.63499 12.0578 8.32442C8.14711 8.12815 4.50297 6.28093 2.03298 3.24192C0.741878 5.46454 1.40126 8.30808 3.53906 9.73539C2.76481 9.71247 2.00769 9.50356 1.33119 9.12658C1.33119 9.1466 1.33119 9.16742 1.33119 9.18823C1.33171 11.5038 2.96397 13.4981 5.23375 13.9567C4.51773 14.1519 3.76614 14.1806 3.03721 14.0402C3.67446 16.0218 5.50061 17.3793 7.58177 17.4183C5.85915 18.7721 3.73137 19.5068 1.54062 19.5047C1.15363 19.5039 0.767168 19.4805 0.382812 19.4344C2.60728 20.8619 5.19582 21.6191 7.83888 21.6156" fill="#2F2F2F" style="fill:#2F2F2F;fill:color(display-p3 0.1849 0.1849 0.1849);fill-opacity:1;"/>
</g>
<defs>
<clipPath id="clip0_212_3799">
<rect width="24" height="24" fill="white" style="fill:white;fill-opacity:1;" transform="translate(0.25)"/>
</clipPath>
</defs>
</svg>
